<svg width="320" height="320" viewBox="0 0 320 320" fill="none" xmlns="http://www.w3.org/2000/svg">
<rect width="320" height="320" fill="#021E40"/>
<path d="M207.629 80H120.003C97.1426 80 81.9023 95.2402 81.9023 118.101H120.003H207.629C230.489 118.101 245.729 102.86 245.729 80H207.629Z" fill="white"/>
<path d="M203.813 140.95H120.003H81.9023C81.9023 163.81 97.1426 179.039 120.003 179.039H203.813H204.761C208.442 179.039 211.422 182.019 211.422 185.711V186.659V194.279V195.228C211.422 198.908 208.442 201.899 204.761 201.899H203.813H108.578C85.718 201.899 70.4778 217.14 70.4778 240H108.578H203.813C230.478 240 249.534 220.955 249.534 194.279V186.659C249.534 159.994 230.478 140.95 203.813 140.95Z" fill="white"/>
</svg>
