<svg width="253" height="41" viewBox="0 0 253 41" fill="none" xmlns="http://www.w3.org/2000/svg">
<path d="M165.44 0C161.029 0 157.372 3.6114 157.372 7.96632H165.44H183.188C187.599 7.96632 191.256 4.35492 191.256 0H183.188H165.44Z" fill="#021E40"/>
<path d="M52.4933 0C47.1149 0 42.8121 4.2487 42.8121 9.55959V27.0855C42.8121 32.3964 47.1149 36.6451 52.4933 36.6451H73.469V28.6788H52.4933C51.6327 28.6788 50.8797 27.9352 50.8797 27.0855V9.55959C50.8797 8.70984 51.6327 7.96632 52.4933 7.96632H68.6285C73.0388 7.96632 76.6961 4.35492 76.6961 0H68.6285H52.4933Z" fill="#021E40"/>
<path d="M11.2947 0C6.88436 0 3.22705 3.6114 3.22705 7.96632H11.2947H32.2704C36.6807 7.96632 40.338 4.35492 40.338 0H32.2704H11.2947Z" fill="#021E40"/>
<path d="M26.6769 36.6451C33.3461 36.6451 38.8321 31.3342 38.8321 24.6425V22.3057C38.8321 17.9508 35.1747 14.3394 30.7645 14.3394H11.4022H3.22704C3.22704 18.6943 6.88435 22.3057 11.2946 22.3057H30.6569V24.7487C30.6569 26.9793 28.8282 28.785 26.5693 28.785H8.0676C3.65731 28.6787 0 32.2901 0 36.6451H8.0676H26.6769Z" fill="#021E40"/>
<path d="M167.053 36.6451H188.029V28.6787H167.053C166.193 28.6787 165.44 27.9352 165.44 27.0855V22.3057H173.507C177.918 22.3057 181.575 18.6943 181.575 14.3394H173.507H165.44H157.372V27.0855C157.372 32.3964 161.782 36.6451 167.053 36.6451Z" fill="#021E40"/>
<path d="M134.783 27.0855V7.96632C134.783 3.6114 131.125 0 126.715 0V7.96632V27.0855C126.715 32.3964 131.018 36.6451 136.396 36.6451H153.392V28.6788H136.396C135.536 28.6788 134.783 27.9352 134.783 27.0855Z" fill="#021E40"/>
<path d="M108.966 0H89.6042C85.1939 0 81.5366 3.6114 81.5366 7.96632H89.6042H108.966C109.827 7.96632 110.58 8.70984 110.58 9.55958V30.6969C110.58 35.0518 114.237 38.6632 118.648 38.6632V30.6969V9.55958C118.648 4.2487 114.345 0 108.966 0Z" fill="#021E40"/>
<path d="M89.6042 22.3057H97.6718H105.739C105.739 17.9508 102.082 14.3394 97.6718 14.3394H89.6042H81.5366V36.6451H89.6042V22.3057Z" fill="#021E40"/>
<path d="M237 0H200V8H237V0Z" fill="#021E40"/>
<path fill-rule="evenodd" clip-rule="evenodd" d="M231.592 31.0454V16.8546C231.592 13.9502 233.959 11.5837 236.863 11.5837L236.863 16.8546L236.863 31.4838C236.96 34.5698 234.635 37.2235 231.595 37.7397V31.0454H231.592Z" fill="#FF5000"/>
<path fill-rule="evenodd" clip-rule="evenodd" d="M206.803 37.8303L207.265 37.8303L210.185 37.8303H219.498C223.048 37.8303 225.952 34.926 225.845 31.4838V16.8546L225.845 11.5837C222.941 11.5837 220.574 13.9502 220.574 16.8546V31.4838C220.574 32.1292 220.036 32.5595 219.498 32.5595H210.185H207.265H206.803C206.265 32.5595 205.728 32.1292 205.728 31.4838L205.728 16.8546C205.728 13.9502 203.361 11.5837 200.457 11.5837L200.457 16.8546L200.457 31.4838C200.349 34.926 203.254 37.8303 206.803 37.8303Z" fill="#FF5000"/>
</svg>
